HIERARCHY
ROOT hip
{
  OFFSET 0 0 0
  CHANNELS 6 Xposition Yposition Zposition Zrotation Yrotation Xrotation
  JOINT abdomen
  {
    OFFSET 0 20.6881 -0.73152
    CHANNELS 3 Zrotation Xrotation Yrotation
    JOINT chest
    {
      OFFSET 0 11.7043 -0.48768
      CHANNELS 3 Zrotation Xrotation Yrotation
      JOINT neck
      {
        OFFSET 0 22.1894 -2.19456
        CHANNELS 3 Zrotation Xrotation Yrotation
        JOINT head
        {
          OFFSET -0.24384 7.07133 1.2192
          CHANNELS 3 Zrotation Xrotation Yrotation
          JOINT leftEye
          {
            OFFSET 4.14528 8.04674 8.04672
            CHANNELS 3 Zrotation Xrotation Yrotation
            End Site
            {
              OFFSET 1 0 0
            }
          }
          JOINT rightEye
          {
            OFFSET -3.6576 8.04674 8.04672
            CHANNELS 3 Zrotation Xrotation Yrotation
            End Site
            {
              OFFSET 1 0 0
            }
          }
        }
      }
      JOINT rCollar
      {
        OFFSET -2.68224 19.2634 -4.8768
        CHANNELS 3 Zrotation Xrotation Yrotation
        JOINT rShldr
        {
          OFFSET -8.77824 -1.95073 1.46304
          CHANNELS 3 Zrotation Xrotation Yrotation
          JOINT rForeArm
          {
            OFFSET -28.1742 -1.7115 0.48768
            CHANNELS 3 Zrotation Xrotation Yrotation
            JOINT rHand
            {
              OFFSET -22.5879 0.773209 7.07136
              CHANNELS 3 Zrotation Xrotation Yrotation
              JOINT rThumb1
              {
                OFFSET -1.2192 -0.487915 3.41376
                CHANNELS 3 Zrotation Xrotation Yrotation
                JOINT rThumb2
                {
                  OFFSET -3.37035 -0.52449 3.41376
                  CHANNELS 3 Zrotation Xrotation Yrotation
                  End Site
                  {
                    OFFSET -1.78271 -1.18214 1.43049
                  }
                }
              }
              JOINT rIndex1
              {
                OFFSET -7.75947 0.938293 5.60832
                CHANNELS 3 Zrotation Xrotation Yrotation
                JOINT rIndex2
                {
                  OFFSET -2.54057 -0.884171 1.56538
                  CHANNELS 3 Zrotation Xrotation Yrotation
                  End Site
                  {
                    OFFSET -1.62519 -0.234802 1.16502
                  }
                }
              }
              JOINT rMid1
              {
                OFFSET -8.24714 1.18213 3.41376
                CHANNELS 3 Zrotation Xrotation Yrotation
                JOINT rMid2
                {
                  OFFSET -3.10165 -0.590103 1.0647
                  CHANNELS 3 Zrotation Xrotation Yrotation
                  End Site
                  {
                    OFFSET -2.48547 -0.328903 0.83742
                  }
                }
              }
              JOINT rRing1
              {
                OFFSET -8.82822 0.546677 1.51678
                CHANNELS 3 Zrotation Xrotation Yrotation
                JOINT rRing2
                {
                  OFFSET -2.60934 -0.819778 -0.0198488
                  CHANNELS 3 Zrotation Xrotation Yrotation
                  End Site
                  {
                    OFFSET -2.33842 -0.294052 0.168128
                  }
                }
              }
              JOINT rPinky1
              {
                OFFSET -8.27202 -0.0477905 -0.4584
                CHANNELS 3 Zrotation Xrotation Yrotation
                JOINT rPinky2
                {
                  OFFSET -1.82734 -0.647385 -0.700984
                  CHANNELS 3 Zrotation Xrotation Yrotation
                  End Site
                  {
                    OFFSET -1.69225 -0.51767 -0.607171
                  }
                }
              }
            }
          }
        }
      }
      JOINT lCollar
      {
        OFFSET 2.68224 19.2634 -4.8768
        CHANNELS 3 Zrotation Xrotation Yrotation
        JOINT lShldr
        {
          OFFSET 8.77824 -1.95073 1.46304
          CHANNELS 3 Zrotation Xrotation Yrotation
          JOINT lForeArm
          {
            OFFSET 28.1742 -1.7115 0.48768
            CHANNELS 3 Zrotation Xrotation Yrotation
            JOINT lHand
            {
              OFFSET 22.5879 0.773209 7.07136
              CHANNELS 3 Zrotation Xrotation Yrotation
              JOINT lThumb1
              {
                OFFSET 1.2192 -0.487915 3.41376
                CHANNELS 3 Zrotation Xrotation Yrotation
                JOINT lThumb2
                {
                  OFFSET 3.37035 -0.52449 3.41376
                  CHANNELS 3 Zrotation Xrotation Yrotation
                  End Site
                  {
                    OFFSET 1.78271 -1.18214 1.43049
                  }
                }
              }
              JOINT lIndex1
              {
                OFFSET 7.75947 0.938293 5.60832
                CHANNELS 3 Zrotation Xrotation Yrotation
                JOINT lIndex2
                {
                  OFFSET 2.54057 -0.884171 1.56538
                  CHANNELS 3 Zrotation Xrotation Yrotation
                  End Site
                  {
                    OFFSET 1.62519 -0.234802 1.16502
                  }
                }
              }
              JOINT lMid1
              {
                OFFSET 8.24714 1.18213 3.41376
                CHANNELS 3 Zrotation Xrotation Yrotation
                JOINT lMid2
                {
                  OFFSET 3.10165 -0.590103 1.0647
                  CHANNELS 3 Zrotation Xrotation Yrotation
                  End Site
                  {
                    OFFSET 2.48547 -0.328903 0.83742
                  }
                }
              }
              JOINT lRing1
              {
                OFFSET 8.82822 0.546677 1.51678
                CHANNELS 3 Zrotation Xrotation Yrotation
                JOINT lRing2
                {
                  OFFSET 2.60934 -0.819778 -0.0198488
                  CHANNELS 3 Zrotation Xrotation Yrotation
                  End Site
                  {
                    OFFSET 2.33842 -0.294052 0.168128
                  }
                }
              }
              JOINT lPinky1
              {
                OFFSET 8.27202 -0.0477905 -0.4584
                CHANNELS 3 Zrotation Xrotation Yrotation
                JOINT lPinky2
                {
                  OFFSET 1.82734 -0.647385 -0.700984
                  CHANNELS 3 Zrotation Xrotation Yrotation
                  End Site
                  {
                    OFFSET 1.69225 -0.51767 -0.607171
                  }
                }
              }
            }
          }
        }
      }
    }
  }
  JOINT rButtock
  {
    OFFSET -8.77824 4.35084 1.2192
    CHANNELS 3 Zrotation Xrotation Yrotation
    JOINT rThigh
    {
      OFFSET 0 -1.70687 -2.19456
      CHANNELS 3 Zrotation Xrotation Yrotation
      JOINT rShin
      {
        OFFSET 0 -36.8199 0.73152
        CHANNELS 3 Zrotation Xrotation Yrotation
        JOINT rFoot
        {
          OFFSET 0.73152 -45.1104 -5.12064
          CHANNELS 3 Zrotation Xrotation Yrotation
          End Site
          {
            OFFSET -1.1221 -3.69964 12.103
          }
        }
      }
    }
  }
  JOINT lButtock
  {
    OFFSET 8.77824 4.35084 1.2192
    CHANNELS 3 Zrotation Xrotation Yrotation
    JOINT lThigh
    {
      OFFSET 0 -1.70687 -2.19456
      CHANNELS 3 Zrotation Xrotation Yrotation
      JOINT lShin
      {
        OFFSET 0 -36.8199 0.73152
        CHANNELS 3 Zrotation Xrotation Yrotation
        JOINT lFoot
        {
          OFFSET -0.73152 -45.1104 -5.12064
          CHANNELS 3 Zrotation Xrotation Yrotation
          End Site
          {
            OFFSET 1.1221 -3.69964 12.103
          }
        }
      }
    }
  }
}
MOTION
Frames:	4
Frame Time:	0.00833333
2.76296 83.9958 -151.578 0.0 0.0 0.0 -1.70022 -0.00276352 -0.0463328 -0.469052 0.00196667 -0.0812255 -2.1466e-14 -7.95139e-16 -3.97569e-16 -6.43969e-14 3.18055e-15 -1.29521e-15 -0.0 0.0 0.0 -0.0 0.0 0.0 -1.07367e-14 -1.12981e-16 -9.93923e-17 -2.23089e-13 -2.47238e-15 -4.57205e-15 -3.88669e-12 1.08417e-12 -1.59028e-14 -4.44105e-11 -1.58449e-12 -1.06867e-12 -1.04772e-10 -1.08137e-12 -2.33453e-12 -1.80932e-10 -1.86699e-12 -4.0568e-12 -1.04767e-10 -1.079e-12 -2.34725e-12 7.73091 5.47488 0.417314 -1.04771e-10 -1.08119e-12 -2.34089e-12 2.90554 0.965183 0.102902 -1.04762e-10 -1.08039e-12 -2.35282e-12 10.2786 0.731801 0.0259123 -1.04769e-10 -1.08139e-12 -2.35679e-12 2.22167 -0.733487 -0.20892 -1.07328e-14 -1.12981e-16 -2.98177e-16 -2.28287e-13 -2.45375e-15 -6.36111e-15 -3.87367e-12 -1.2434e-12 -6.99722e-14 -4.44105e-11 7.45119e-13 -1.01142e-12 -1.04744e-10 -1.07932e-12 -2.35997e-12 -1.80892e-10 -1.86699e-12 -4.05282e-12 -1.04752e-10 -1.07582e-12 -2.34725e-12 -7.73091 5.47488 -0.417314 -1.04744e-10 -1.0788e-12 -2.35361e-12 -2.90554 0.965183 -0.102902 -1.04756e-10 -1.07841e-12 -2.34725e-12 -10.2786 0.731801 -0.0259123 -1.04746e-10 -1.08099e-12 -2.35043e-12 -2.22167 -0.733487 0.20892 -2.03217e-16 0.0 -3.88251e-19 -0.815258 -1.92421 -0.00353247 -0.00895452 -2.0786 -0.0737742 -0.474521 3.99777 0.134756 2.03217e-16 0.0 3.88251e-19 -1.77359 -6.84758 0.169533 -0.00326656 6.83969 -0.0864336 0.504719 0.00295217 -0.0573576
2.75461 82.2378 -151.629 -0.7638 -0.9964 -3.4548 -2.20222 3.81744 0.604047 -0.312412 -1.78451 0.0170271 -0.493714 -0.0607815 -0.89249 0.505277 -0.212442 -1.6199 -0.0 0.0 0.0 -0.0 0.0 0.0 2.34255e-15 -5.36296e-14 -4.96185e-16 22.2938 1.28796 1.38716 -3.56958 -1.51106 5.68995 0.00578865 1.68851 0.236933 -1.40732e-10 -2.50413e-10 3.76569e-10 -2.40815e-10 -4.34846e-10 6.51109e-10 -1.40727e-10 -2.5041e-10 3.76559e-10 7.73091 5.47488 0.417314 -1.40731e-10 -2.50413e-10 3.76564e-10 2.90554 0.965183 0.102902 -1.40723e-10 -2.50413e-10 3.76557e-10 10.2786 0.731801 0.0259123 -1.4073e-10 -2.50412e-10 3.76555e-10 2.22167 -0.733487 -0.20892 2.2941e-15 -5.36302e-14 -7.24477e-16 -21.4269 4.88469 -0.212029 3.0234 -1.19924 -4.89489 -0.00457744 -1.50098 0.210688 -1.53438e-10 -3.22041e-10 -4.581e-10 -2.64051e-10 -5.5616e-10 -7.9172e-10 -1.53445e-10 -3.22038e-10 -4.58088e-10 -7.73091 5.47488 -0.417314 -1.53438e-10 -3.2204e-10 -4.58093e-10 -2.90554 0.965183 -0.102902 -1.5345e-10 -3.2204e-10 -4.5809e-10 -10.2786 0.731801 -0.0259123 -1.53439e-10 -3.22041e-10 -4.58093e-10 -2.22167 -0.733487 0.20892 -2.03217e-16 0.0 -3.88251e-19 -0.774694 -7.78103 -0.383335 -0.0784932 18.1317 0.172683 -0.515981 5.68046 -2.0763 2.03217e-16 0.0 3.88251e-19 -2.88565 -10.2531 0.207497 0.0383974 13.2358 -0.027325 0.477695 -1.28663 -0.816943
2.85168 82.206 -150.77 -0.7094 -0.8341 -3.4089 -2.82341 7.84907 1.30541 -0.141983 -3.68511 0.122088 -1.01924 -0.0929396 -1.83346 1.0256 -0.462793 -3.32753 -0.0 0.0 0.0 -0.0 0.0 0.0 1.69036e-14 -1.10772e-13 -7.01958e-16 45.7822 2.6775 2.85622 -7.0248 -3.06275 11.7277 -0.00329446 3.46772 0.487291 -1.86678e-10 -5.17254e-10 7.88373e-10 -3.17763e-10 -8.98272e-10 1.36323e-09 -1.86673e-10 -5.1725e-10 7.88366e-10 7.73091 5.47488 0.417314 -1.86679e-10 -5.17254e-10 7.88368e-10 2.90554 0.965183 0.102902 -1.8667e-10 -5.17254e-10 7.88366e-10 10.2786 0.731801 0.0259123 -1.86677e-10 -5.17252e-10 7.88367e-10 2.22167 -0.733487 -0.20892 1.67977e-14 -1.10774e-13 -9.62863e-16 -44.0599 10.0326 -0.393225 5.99327 -2.43528 -10.0693 0.00259892 -3.08527 0.433559 -2.10328e-10 -6.74248e-10 -9.54886e-10 -3.61276e-10 -1.16443e-09 -1.65036e-09 -2.10334e-10 -6.74246e-10 -9.54874e-10 -7.73091 5.47488 -0.417314 -2.10327e-10 -6.74248e-10 -9.54879e-10 -2.90554 0.965183 -0.102902 -2.10341e-10 -6.74247e-10 -9.54879e-10 -10.2786 0.731801 -0.0259123 -2.10329e-10 -6.74247e-10 -9.54881e-10 -2.22167 -0.733487 0.20892 -2.03217e-16 0.0 -3.88251e-19 -0.814035 -13.9131 -0.787227 -0.38806 39.4914 0.537928 -0.413583 7.49126 -4.43352 2.03217e-16 0.0 3.88251e-19 -4.0494 -13.8894 0.25002 0.0684026 19.9921 0.0413634 0.410344 -2.62031 -1.63677
2.92291 82.229 -149.866 -0.7075 -0.6555 -3.5282 -3.47079 11.4521 1.93941 0.0193056 -5.35743 0.214444 -1.48682 -0.182168 -2.67748 1.47984 -0.635288 -4.85995 -0.0 0.0 0.0 -0.0 0.0 0.0 2.85011e-14 -1.60663e-13 -1.28977e-15 66.6942 3.85481 4.16987 -9.82098 -4.35468 17.1148 -0.0246675 5.06519 0.713277 -2.12651e-10 -7.49077e-10 1.13438e-09 -3.6058e-10 -1.3008e-09 1.96144e-09 -2.12646e-10 -7.49072e-10 1.13437e-09 7.73091 5.47488 0.417314 -2.12653e-10 -7.49078e-10 1.13437e-09 2.90554 0.965183 0.102902 -2.12644e-10 -7.49077e-10 1.13438e-09 10.2786 0.731801 0.0259123 -2.12651e-10 -7.49074e-10 1.13438e-09 2.22167 -0.733487 -0.20892 2.83478e-14 -1.60665e-13 -1.57708e-15 -64.169 14.6533 -0.655085 8.462 -3.49284 -14.7094 0.0194707 -4.5027 0.633803 -2.50826e-10 -9.63964e-10 -1.36958e-09 -4.30367e-10 -1.66474e-09 -2.36705e-09 -2.50831e-10 -9.63963e-10 -1.36957e-09 -7.73091 5.47488 -0.417314 -2.50824e-10 -9.63964e-10 -1.36957e-09 -2.90554 0.965183 -0.102902 -2.50839e-10 -9.63962e-10 -1.36958e-09 -10.2786 0.731801 -0.0259123 -2.50826e-10 -9.63962e-10 -1.36958e-09 -2.22167 -0.733487 0.20892 -2.03217e-16 0.0 -3.88251e-19 -0.938954 -19.4912 -1.2012 -1.10774 58.5467 1.22615 -0.205912 8.99882 -6.54809 2.03217e-16 0.0 3.88251e-19 -5.09546 -17.064 0.288608 0.0786948 26.028 0.102205 0.320896 -3.86297 -2.34082
